<svg width="13" height="13" viewBox="0 0 13 13" fill="none" xmlns="http://www.w3.org/2000/svg">
<path d="M9.67323 6.47258H3.29072C3.27148 6.47258 3.25152 6.46474 3.23515 6.44838C3.21878 6.43201 3.21094 6.41205 3.21094 6.3928C3.21094 6.37356 3.21878 6.3536 3.23515 6.33723C3.25152 6.32086 3.27148 6.31302 3.29072 6.31302H9.67323C9.69247 6.31302 9.71244 6.32086 9.72881 6.33723C9.74517 6.3536 9.75301 6.37356 9.75301 6.3928C9.75301 6.41204 9.74517 6.43201 9.72881 6.44838C9.71244 6.46474 9.69247 6.47258 9.67323 6.47258Z" fill="#292D32" stroke="#2F2F2F" stroke-width="0.638251"/>
<path d="M6.48198 9.66369C6.46273 9.66369 6.44277 9.65585 6.4264 9.63948C6.41003 9.62311 6.40219 9.60315 6.40219 9.58391V3.2014C6.40219 3.18216 6.41003 3.16219 6.4264 3.14582C6.44277 3.12946 6.46273 3.12162 6.48198 3.12162C6.50122 3.12162 6.52118 3.12946 6.53755 3.14582C6.55392 3.16219 6.56176 3.18216 6.56176 3.2014V9.58391C6.56176 9.60315 6.55392 9.62311 6.53755 9.63948C6.52118 9.65585 6.50122 9.66369 6.48198 9.66369Z" fill="#292D32" stroke="#2F2F2F" stroke-width="0.638251"/>
</svg>
