<svg width="20" height="21" viewBox="0 0 20 21" fill="none" xmlns="http://www.w3.org/2000/svg">
<path d="M13.7491 0.5C12.5639 0.641967 11.4773 1.2302 10.7105 2.145C10.048 2.95107 9.50303 4.14857 9.71553 5.3125C10.3115 5.299 10.8967 5.15116 11.4276 4.88C11.9585 4.60884 12.4213 4.22136 12.7816 3.74643C13.1494 3.29606 13.4242 2.77727 13.5903 2.22005C13.7563 1.66282 13.8103 1.07821 13.7491 0.5Z" fill="#242323"/>
<path d="M17.9627 7.20972C16.9391 5.92615 15.5002 5.18115 14.1412 5.18115C12.3477 5.18115 11.5887 6.0383 10.3427 6.0383C9.05696 6.0383 8.08161 5.18115 6.53018 5.18115C5.00661 5.18115 3.38411 6.11222 2.35518 7.70472C0.909105 9.94722 1.15661 14.1633 3.50018 17.7547C4.33875 19.0404 5.45875 20.4847 6.92375 20.4972C8.22732 20.5097 8.59482 19.6612 10.3612 19.6522C12.1277 19.6433 12.4623 20.5094 13.7637 20.4947C15.2298 20.4837 16.4112 18.8822 17.2498 17.5972C17.7564 16.8319 18.1887 16.0198 18.5409 15.1722C15.1502 13.8837 14.6066 9.05972 17.9627 7.20972Z" fill="#242323"/>
</svg>
