<svg width="24" height="25" viewBox="0 0 24 25" fill="none" xmlns="http://www.w3.org/2000/svg">
<path d="M8.91 21.6112C8.72 21.6112 8.53 21.5412 8.38 21.3912C8.09 21.1012 8.09 20.6212 8.38 20.3312L14.9 13.8112C15.38 13.3312 15.38 12.5512 14.9 12.0712L8.38 5.55118C8.09 5.26118 8.09 4.78118 8.38 4.49118C8.67 4.20118 9.15 4.20118 9.44 4.49118L15.96 11.0112C16.47 11.5212 16.76 12.2112 16.76 12.9412C16.76 13.6712 16.48 14.3612 15.96 14.8712L9.44 21.3912C9.29 21.5312 9.1 21.6112 8.91 21.6112Z" fill="#292D32"/>
</svg>
