<svg width="43" height="88" viewBox="0 0 43 88" fill="none" xmlns="http://www.w3.org/2000/svg">
<g opacity="0.2">
<path d="M15.4961 0C10.2812 0.624655 5.50032 3.2129 2.12637 7.238C-0.788633 10.7847 -3.18663 16.0537 -2.25163 21.175C0.370625 21.1156 2.94566 20.4651 5.28152 19.272C7.61739 18.0789 9.65384 16.374 11.2391 14.2843C12.8572 12.3027 14.0665 10.02 14.7972 7.5682C15.5279 5.11642 15.7654 2.54413 15.4961 0Z" fill="#DADADA"/>
<path d="M34.0358 29.5224C29.5321 23.8747 23.2008 20.5967 17.2215 20.5967C9.32979 20.5967 5.9905 24.3681 0.507786 24.3681C-5.14936 24.3681 -9.44093 20.5967 -16.2672 20.5967C-22.9709 20.5967 -30.1099 24.6934 -34.6372 31.7004C-40.9999 41.5674 -39.9109 60.1181 -29.5992 75.9204C-25.9095 81.5775 -20.9815 87.9324 -14.5355 87.9874C-8.79979 88.0424 -7.18279 84.3087 0.5895 84.2694C8.36179 84.2301 9.83422 88.0408 15.5605 87.9764C22.0112 87.9277 27.2095 80.8814 30.8992 75.2274C33.1283 71.8597 35.0305 68.2869 36.5799 64.5574C21.6608 58.8877 19.2691 37.6624 34.0358 29.5224Z" fill="#DADADA"/>
</g>
</svg>
