<svg width="112" height="97" viewBox="0 0 112 97" fill="none" xmlns="http://www.w3.org/2000/svg">
<g opacity="0.02">
<path d="M100.326 30.31L23.896 -13.378C22.0238 -14.4459 19.9041 -15.0035 17.7487 -14.9953C15.5934 -14.987 13.478 -14.4131 11.6141 -13.3309C9.75011 -12.2486 8.20291 -10.6961 7.12716 -8.82839C6.05141 -6.96071 5.48481 -4.84334 5.48399 -2.688V84.688C5.48381 86.8448 6.0502 88.9638 7.12646 90.8329C8.20273 92.702 9.75111 94.2555 11.6166 95.338C13.482 96.4205 15.5992 96.994 17.7559 97.001C19.9127 97.008 22.0335 96.4484 23.906 95.378L100.324 51.688C102.208 50.611 103.774 49.0551 104.863 47.178C105.952 45.3009 106.526 43.1692 106.526 40.999C106.526 38.8288 105.952 36.6971 104.863 34.82C103.774 32.9429 102.21 31.387 100.326 30.31ZM67.206 19.98L56.712 34.6L31.61 -0.366L67.206 19.98ZM17.304 89.49C16.6176 89.4284 15.9525 89.2196 15.354 88.878C14.6195 88.4502 14.01 87.8372 13.5864 87.1002C13.1628 86.3632 12.9399 85.5281 12.94 84.678V-2.688C12.9373 -3.88824 13.3822 -5.04636 14.1877 -5.93617C14.9931 -6.82598 16.1014 -7.38356 17.296 -7.5L52.116 41L17.304 89.49ZM31.61 82.366L56.712 47.4L67.206 62.018L31.61 82.366ZM96.61 45.206L73.722 58.294L61.308 41L73.724 23.706L96.62 36.8C97.3616 37.2237 97.9779 37.8358 98.4066 38.5745C98.8353 39.3131 99.0611 40.152 99.0611 41.006C99.0611 41.86 98.8353 42.6989 98.4066 43.4375C97.9779 44.1762 97.3616 44.7884 96.62 45.212L96.61 45.206Z" fill="#242323"/>
</g>
</svg>
