<svg width="20" height="20" viewBox="0 0 20 20" fill="none" xmlns="http://www.w3.org/2000/svg">
<path d="M13.7491 0C12.5639 0.141967 11.4773 0.730205 10.7105 1.645C10.048 2.45107 9.50304 3.64857 9.71554 4.8125C10.3115 4.799 10.8967 4.65116 11.4276 4.38C11.9585 4.10884 12.4213 3.72136 12.7816 3.24643C13.1494 2.79606 13.4242 2.27727 13.5903 1.72005C13.7563 1.16282 13.8103 0.578211 13.7491 0Z" fill="#242323"/>
<path d="M17.9627 6.70972C16.9391 5.42615 15.5002 4.68115 14.1412 4.68115C12.3477 4.68115 11.5887 5.5383 10.3427 5.5383C9.05694 5.5383 8.08158 4.68115 6.53015 4.68115C5.00658 4.68115 3.38408 5.61222 2.35515 7.20472C0.909083 9.44722 1.15658 13.6633 3.50015 17.2547C4.33873 18.5404 5.45873 19.9847 6.92373 19.9972C8.2273 20.0097 8.5948 19.1612 10.3612 19.1522C12.1277 19.1433 12.4623 20.0094 13.7637 19.9947C15.2298 19.9837 16.4112 18.3822 17.2498 17.0972C17.7564 16.3319 18.1887 15.5198 18.5409 14.6722C15.1502 13.3837 14.6066 8.55972 17.9627 6.70972Z" fill="#242323"/>
</svg>
