<svg width="128" height="28" viewBox="0 0 128 28" fill="none" xmlns="http://www.w3.org/2000/svg">
<path d="M33.3636 19.8439V8.77881H38.5387C40.9494 8.77881 42.2525 10.4074 42.2525 12.3431C42.2525 14.2695 40.9215 15.8981 38.5387 15.8981H35.7185V19.8439H33.3636ZM39.8604 12.3431C39.8604 11.4125 39.1437 10.8541 38.2223 10.8541H35.7371V13.8228H38.213C39.1437 13.8228 39.8604 13.2551 39.8604 12.3431Z" fill="#FDFDFD"/>
<path d="M48.1815 19.8439C48.1164 19.6298 48.0698 19.3879 48.0512 19.118C47.7999 19.4065 47.4555 19.6391 47.0367 19.8066C46.6178 19.9741 46.1338 20.0672 45.5754 20.0672C44.6353 20.0672 43.9465 19.8625 43.5091 19.4437C43.0716 19.0249 42.8575 18.4852 42.8575 17.8244C42.8575 17.2381 42.9506 16.7728 43.1367 16.4192C43.3229 16.0748 43.5835 15.7957 43.9186 15.6002C44.2537 15.4048 44.6446 15.2559 45.1007 15.1628C45.5568 15.0698 46.0594 14.986 46.5992 14.9023C47.1391 14.8278 47.5021 14.7254 47.6975 14.5951C47.8837 14.4649 47.9768 14.2601 47.9768 13.9716C47.9768 13.7018 47.8558 13.497 47.6045 13.3481C47.3531 13.1992 47.0181 13.1248 46.5992 13.1248C46.1059 13.1248 45.7429 13.2364 45.5288 13.4598C45.3147 13.6831 45.1751 13.9716 45.1193 14.3346H43.1088C43.1181 13.9158 43.1926 13.5249 43.3136 13.1713C43.4439 12.8177 43.6487 12.5106 43.9279 12.2593C44.2071 12.008 44.5794 11.8126 45.0262 11.673C45.4823 11.5334 46.0314 11.4683 46.683 11.4683C47.3252 11.4683 47.8651 11.5427 48.3118 11.6823C48.7586 11.8219 49.1123 12.0359 49.3915 12.3058C49.6615 12.5757 49.8569 12.9107 49.9779 13.3202C50.0989 13.7204 50.1641 14.1764 50.1641 14.6882V19.8439H48.1815ZM48.0326 15.8422C47.9209 15.9539 47.7627 16.0376 47.5486 16.1121C47.3345 16.1772 47.0367 16.2517 46.6364 16.3261C46.0128 16.4471 45.594 16.6053 45.3613 16.7914C45.1286 16.9775 45.0169 17.2474 45.0169 17.6011C45.0169 18.206 45.3613 18.5131 46.0594 18.5131C46.3386 18.5131 46.5899 18.4665 46.8319 18.3735C47.0739 18.2804 47.2787 18.1501 47.4462 17.9919C47.6138 17.8337 47.7534 17.6476 47.8651 17.4242C47.9675 17.2102 48.0233 16.9775 48.0233 16.7356L48.0326 15.8422Z" fill="#FDFDFD"/>
<path d="M51.5695 21.9006L52.5189 20.393C53.096 21.0909 54.0826 21.3701 54.9296 21.3701C56.2885 21.3701 57.089 20.4395 57.089 19.3135V18.4852C56.5398 19.0808 55.5811 19.695 54.2688 19.695C52.5096 19.695 51.6812 18.7365 51.6812 17.173V11.8312H53.7848V16.3448C53.7848 17.4522 54.3618 17.8245 55.2647 17.8245C56.0745 17.8245 56.726 17.3778 57.089 16.9124V11.8312H59.1925V19.3135C59.1925 21.7238 57.4799 23.0918 54.9296 23.0918C53.58 23.0918 52.5003 22.7102 51.5695 21.9006ZM65.9406 19.8439V17.5546H60.6445V15.6933L65.0378 8.77881H68.2862V15.4793H69.7103V17.5546H68.2862V19.8439H65.9406ZM65.9406 10.8634L62.9529 15.4793H65.9406V10.8634ZM80.8609 19.8439V11.8592L77.7428 19.8439H76.7097L73.5916 11.8592V19.8439H71.2367V8.77881H74.541L77.2309 15.6933L79.9208 8.77881H83.2437V19.8439H80.8609ZM84.8632 15.8236C84.8632 13.4971 86.5852 11.6265 89.0145 11.6265C91.4252 11.6265 93.0261 13.4226 93.0261 16.019V16.5123H87.0692C87.2181 17.4894 88.0186 18.3084 89.3775 18.3084C90.0569 18.3084 90.9877 18.0292 91.4997 17.5267L92.449 18.9226C91.6486 19.6485 90.392 20.03 89.1448 20.03C86.7062 20.0393 84.8632 18.4014 84.8632 15.8236ZM89.0145 13.3575C87.7021 13.3575 87.1436 14.2695 87.0599 15.0698H91.0063C90.9319 14.2974 90.4013 13.3575 89.0145 13.3575ZM106.513 19.8439L105.815 17.9734H101.068L100.37 19.8439H97.6986L101.962 8.77881H104.912L109.175 19.8439H106.513ZM103.451 11.1333L101.729 15.8981H105.182L103.451 11.1333ZM112.274 18.8109V22.8963H110.171V11.8312H112.274V12.8456C112.889 12.0639 113.764 11.6358 114.75 11.6358C116.807 11.6358 118.306 13.162 118.306 15.8329C118.306 18.5038 116.817 20.0486 114.75 20.0486C113.801 20.0393 112.935 19.6485 112.274 18.8109ZM116.128 15.8236C116.128 14.4463 115.299 13.4971 114.089 13.4971C113.41 13.4971 112.647 13.8786 112.284 14.4091V17.2289C112.628 17.7407 113.41 18.1595 114.089 18.1595C115.29 18.1688 116.128 17.2196 116.128 15.8236ZM121.945 18.8109V22.8963H119.842V11.8312H121.945V12.8456C122.56 12.0639 123.434 11.6358 124.421 11.6358C126.478 11.6358 127.977 13.162 127.977 15.8329C127.977 18.5038 126.487 20.0486 124.421 20.0486C123.472 20.0393 122.615 19.6485 121.945 18.8109ZM125.799 15.8236C125.799 14.4463 124.97 13.4971 123.76 13.4971C123.081 13.4971 122.318 13.8786 121.955 14.4091V17.2289C122.299 17.7407 123.081 18.1595 123.76 18.1595C124.97 18.1688 125.799 17.2196 125.799 15.8236Z" fill="#FDFDFD"/>
<g opacity="0.78">
<path d="M19.914 27.6148H7.37648C3.31831 27.6148 0.0233765 24.3204 0.0233765 20.2628V7.73668C0.0233765 3.67917 3.31831 0.384766 7.37648 0.384766H19.914C23.9722 0.384766 27.2671 3.67917 27.2671 7.73668V20.2722C27.2671 24.3297 23.9722 27.6148 19.914 27.6148Z" fill="#7AC52D"/>
<path opacity="0.78" d="M3.99777 20.2444V12.8088C3.99777 12.4179 4.24908 12.0736 4.61208 11.9526L7.84186 10.8638V14.8189C7.84186 15.3121 8.14902 15.7495 8.60509 15.9263C9.71271 16.3451 11.6766 17.0896 12.2072 17.2664C12.8029 17.4619 12.7284 18.1412 12.6633 18.4111C12.626 18.4297 12.5981 18.4483 12.5609 18.467L5.20778 21.1006C4.74239 21.2681 4.22116 21.0262 4.05362 20.5609C4.01639 20.4585 3.99777 20.3561 3.99777 20.2444Z" fill="white"/>
<path opacity="0.53" d="M7.84186 10.8642V8.02534C7.84186 7.3738 8.3724 6.84326 9.02394 6.84326C9.16355 6.84326 9.29386 6.87118 9.42417 6.91772L12.6819 8.0905L12.7377 8.20219C12.9146 8.68619 12.6726 9.21673 12.1886 9.39358C12.1793 9.39358 12.1699 9.40289 12.1513 9.40289L7.84186 10.8642Z" fill="white"/>
<path d="M12.6819 8.09033L12.7377 8.202C12.9146 8.68593 12.6726 9.21638 12.1886 9.3932C12.1793 9.3932 12.1699 9.40251 12.1513 9.40251L7.84186 10.8636V14.8187C7.84186 15.312 8.14901 15.7493 8.60509 15.9262C9.71271 16.3449 11.6766 17.0894 12.2072 17.2663C12.8029 17.4617 12.7284 18.141 12.6633 18.4109C13.1473 18.1317 13.4544 17.6385 13.4916 17.0801V9.33736C13.4916 8.98373 13.352 8.6487 13.1193 8.38813C12.9983 8.25784 12.8494 8.14617 12.6819 8.09033Z" fill="white"/>
<path opacity="0.78" d="M23.2927 7.75538V15.1911C23.2927 15.5819 23.0507 15.9262 22.6784 16.0472L19.4486 17.1361V13.1809C19.4486 12.6877 19.1414 12.2503 18.6854 12.0735C17.5871 11.6547 15.6138 10.9102 15.0833 10.7334C14.4876 10.5379 14.562 9.85859 14.6272 9.58871C14.6644 9.5701 14.6924 9.55149 14.7296 9.53287L22.0827 6.89921C22.5574 6.7317 23.0693 6.97366 23.2368 7.44828C23.2741 7.54134 23.2927 7.65302 23.2927 7.75538Z" fill="white"/>
<path d="M13.7895 11.9805V18.4483C13.7802 17.3129 13.7895 13.7673 13.7895 11.9805Z" fill="white"/>
<path opacity="0.53" d="M19.4486 17.1357V19.9746C19.4486 20.6261 18.918 21.1567 18.2665 21.1567C18.1269 21.1567 17.9966 21.1288 17.8663 21.0822L14.6179 19.9094L14.562 19.7977C14.3852 19.3137 14.6272 18.7832 15.1112 18.6064C15.1205 18.6064 15.1298 18.5971 15.1484 18.5971L19.4486 17.1357Z" fill="white"/>
<path d="M14.6179 19.909L14.562 19.7973C14.3852 19.3134 14.6272 18.7829 15.1112 18.6061C15.1205 18.6061 15.1298 18.5968 15.1484 18.5968L19.4579 17.1357V13.1806C19.4579 12.6873 19.1507 12.25 18.6947 12.0731C17.5963 11.6544 15.6231 10.9099 15.0926 10.733C14.4969 10.5376 14.5713 9.85826 14.6365 9.58838C14.1525 9.86757 13.8453 10.3701 13.8081 10.9192V18.6526C13.8081 19.0063 13.9384 19.3413 14.1804 19.6019C14.2921 19.7415 14.4503 19.8438 14.6179 19.909Z" fill="white"/>
</g>
</svg>
