<svg width="64" height="64" viewBox="0 0 64 64" fill="none" xmlns="http://www.w3.org/2000/svg">
<g id="Frame">
<path id="Vector" d="M35.0453 9.59466V15.7813L33.5838 15.0507L32.5759 14.5493V14.544L29.9573 13.2373L24.3787 10.448V4.26132L29.5092 6.82666L30.2719 7.21066L35.0453 9.59466Z" stroke="#377996" stroke-width="1.2" stroke-linecap="round" stroke-linejoin="round"/>
<path id="Vector_2" d="M30.2987 46.3466L25.5521 51.2959L14.8854 45.9626L19.6321 41.0133L26.256 44.3253L30.2987 46.3466Z" stroke="#377996" stroke-width="1.2" stroke-linecap="round" stroke-linejoin="round"/>
<path id="Vector_3" d="M49.5467 36.7093C49.5467 40.192 48.6454 43.3599 46.8481 46.2133C45.0561 49.0666 42.8321 51.4773 40.1761 53.4507V59.632L35.0454 62.5973V56.2667C32.7788 56.9867 30.8214 56.9867 29.1788 56.272L28.7734 56.0693C28.4108 55.8667 28.0693 55.616 27.7547 55.312C26.8107 54.416 26.0801 53.0773 25.5521 51.2959L30.2987 46.3466C30.4001 46.6613 30.5068 46.9546 30.6294 47.2319C31.2481 48.7039 32.0908 49.6533 33.1521 50.0693C34.4161 50.5706 36.0747 50.2293 38.128 49.04C39.8773 48.032 41.3654 46.7199 42.5814 45.1039C43.8027 43.4933 44.4107 41.7333 44.4107 39.8186C44.4107 38.1013 43.9414 37.0079 43.0027 36.5493C42.2241 36.1653 40.6027 36.1813 38.1333 36.5866C37.6107 36.6773 37.0561 36.7786 36.4587 36.9013C35.2587 37.1626 34.1867 37.3226 33.2321 37.3866C31.4934 37.5039 30.1601 37.2959 29.2374 36.7519L29.1947 36.7306C29.088 36.6666 28.9814 36.5973 28.8854 36.5226C27.5894 35.5253 26.9067 33.8026 26.8427 31.3653C26.8374 31.2373 26.8374 31.1093 26.8374 30.9759C26.8374 28.8746 27.2267 26.8586 28.0053 24.9279C28.4107 23.9253 28.9174 22.9439 29.5307 21.9839C31.1361 19.4773 32.7681 17.5626 34.4427 16.2346C34.6454 16.0746 34.8428 15.9253 35.0454 15.7813V9.59461L36.7734 8.59728L37.2374 8.33061L40.1761 6.63461V12.8159C42.3147 11.9733 44.08 11.8506 45.472 12.4479C46.8587 13.0453 47.8773 14.1653 48.5173 15.8079L43.7707 20.9013C43.2587 19.6266 42.528 18.8693 41.5893 18.6293C41.04 18.4853 40.3733 18.5439 39.5893 18.8106C39.0293 18.9973 38.416 19.2853 37.7387 19.6746C35.8613 20.7573 34.4268 22.0639 33.4401 23.5893C33.3281 23.7599 33.2267 23.9306 33.1307 24.1013C32.3574 25.4453 31.9681 26.7466 31.9681 28.0106C31.9681 29.6319 32.608 30.5333 33.8933 30.7253C34.928 30.8799 36.5707 30.7146 38.8321 30.2293C39.3761 30.1119 39.9521 29.9733 40.5654 29.8186C43.0027 29.2213 44.9493 29.3013 46.4107 30.0586C46.72 30.2186 47.0081 30.4053 47.2694 30.6239C48.7841 31.8826 49.5467 33.9093 49.5467 36.7093Z" fill="#95D7F3" stroke="#377996" stroke-width="1.2" stroke-linecap="round" stroke-linejoin="round"/>
<path id="Vector_4" d="M28.7734 56.0693L27.5254 55.4453L24.3788 53.872L18.5121 50.9386C16.8641 50.2186 15.6534 48.5599 14.8854 45.9626L25.5521 51.2959C26.0801 53.0773 26.8107 54.416 27.7547 55.312C28.0693 55.616 28.4108 55.8667 28.7734 56.0693Z" stroke="#377996" stroke-width="1.2" stroke-linecap="round" stroke-linejoin="round"/>
<path id="Vector_5" d="M35.0453 56.2667V62.5973L24.3787 57.264V53.872L27.5253 55.4453L28.7733 56.0693L29.1787 56.272C30.8213 56.9867 32.7787 56.9867 35.0453 56.2667Z" stroke="#377996" stroke-width="1.2" stroke-linecap="round" stroke-linejoin="round"/>
<path id="Vector_6" d="M46.4108 30.0586C44.9495 29.3013 43.0028 29.2213 40.5655 29.8186C39.9522 29.9733 39.3762 30.112 38.8322 30.2293C36.5708 30.7146 34.9282 30.88 33.8935 30.7253C32.6082 30.5333 31.9682 29.632 31.9682 28.0106C31.9682 26.7466 32.3575 25.4453 33.1309 24.1013C34.1495 24.128 35.0402 24.3466 35.7922 24.752L35.8242 24.768L46.4108 30.0586Z" stroke="#377996" stroke-width="1.2" stroke-linecap="round" stroke-linejoin="round"/>
<path id="Vector_7" d="M40.1759 6.63461L37.2372 8.33061L36.7733 8.59728L35.0453 9.59461L30.2719 7.21061L29.5092 6.82661L24.3787 4.26129L29.5092 1.3013L40.1759 6.63461Z" stroke="#377996" stroke-width="1.2" stroke-linecap="round" stroke-linejoin="round"/>
<path id="Vector_8" d="M45.472 12.4479C44.08 11.8506 42.3147 11.9733 40.1761 12.8159V9.80261L45.472 12.4479Z" stroke="#377996" stroke-width="1.2" stroke-linecap="round" stroke-linejoin="round"/>
<path id="Vector_9" d="M43.7712 20.9012L39.5898 18.8105" stroke="#377996" stroke-width="1.2" stroke-linecap="round" stroke-linejoin="round"/>
<path id="Vector_10" d="M35.0455 15.7812C34.8429 15.9252 34.6455 16.0746 34.4428 16.2346C32.7682 17.5626 31.1362 19.4772 29.5309 21.9839C28.9175 22.9439 28.4108 23.9252 28.0055 24.9279C27.2268 26.8586 26.8375 28.8746 26.8375 30.9759C26.8375 31.1092 26.8375 31.2372 26.8428 31.3652C26.9068 33.8026 27.5895 35.5252 28.8855 36.5226C28.9815 36.5972 29.0881 36.6666 29.1948 36.7306L19.0561 31.6532L19.0082 31.6319C18.7095 31.5146 18.4482 31.3652 18.2189 31.1892C16.8535 30.1386 16.1708 28.2879 16.1708 25.6426C16.1708 22.4532 17.0669 19.4559 18.8642 16.6506C20.6615 13.8452 22.4962 11.7812 24.3789 10.4479L29.9575 13.2372L32.5762 14.544L33.5841 15.0506L35.0455 15.7812Z" stroke="#377996" stroke-width="1.2" stroke-linecap="round" stroke-linejoin="round"/>
<path id="Vector_11" d="M44.4109 39.8186C44.4109 41.7333 43.803 43.4933 42.5816 45.1039C41.3656 46.7199 39.8776 48.0319 38.1283 49.0399C36.0749 50.2293 34.4163 50.5706 33.1523 50.0693C32.091 49.6533 31.2484 48.7039 30.6297 47.2319C30.507 46.9546 30.4003 46.6613 30.2989 46.3466L26.2563 44.3253C26.6403 44.1546 27.0456 43.9466 27.4616 43.7066C29.2109 42.6986 30.699 41.3866 31.915 39.7706C32.4963 39.0079 32.9336 38.2133 33.2323 37.3866C34.1869 37.3226 35.259 37.1626 36.459 36.9013C37.0563 36.7786 37.6109 36.6773 38.1336 36.5866C40.6029 36.1813 42.2243 36.1653 43.003 36.5493C43.9416 37.0079 44.4109 38.1013 44.4109 39.8186Z" stroke="#377996" stroke-width="1.2" stroke-linecap="round" stroke-linejoin="round"/>
</g>
</svg>
