<svg width="14" height="13" viewBox="0 0 14 13" fill="none" xmlns="http://www.w3.org/2000/svg">
<path d="M7.34093 12.1104C4.1869 12.1104 1.62326 9.54674 1.62326 6.39271C1.62326 3.23869 4.1869 0.675049 7.34093 0.675049C7.55899 0.675049 7.73983 0.855887 7.73983 1.07396C7.73983 1.29202 7.55899 1.47286 7.34093 1.47286C4.62836 1.47286 2.42107 3.68015 2.42107 6.39271C2.42107 9.10528 4.62836 11.3126 7.34093 11.3126C10.0535 11.3126 12.2608 9.10528 12.2608 6.39271C12.2608 6.17464 12.4416 5.99381 12.6597 5.99381C12.8778 5.99381 13.0586 6.17464 13.0586 6.39271C13.0586 9.54674 10.4949 12.1104 7.34093 12.1104Z" fill="#292D32"/>
<path d="M7.87292 6.25992C7.77186 6.25992 7.67081 6.22269 7.59102 6.1429C7.43678 5.98866 7.43678 5.73336 7.59102 5.57912L11.9524 1.21773C12.1067 1.06349 12.362 1.06349 12.5162 1.21773C12.6704 1.37198 12.6704 1.62728 12.5162 1.78152L8.15481 6.1429C8.07503 6.22269 7.97398 6.25992 7.87292 6.25992Z" fill="#292D32"/>
<path d="M12.6596 4.04182C12.4416 4.04182 12.2607 3.86099 12.2607 3.64292V1.47286H10.0907C9.87261 1.47286 9.69177 1.29202 9.69177 1.07396C9.69177 0.855887 9.87261 0.675049 10.0907 0.675049H12.6596C12.8777 0.675049 13.0585 0.855887 13.0585 1.07396V3.64292C13.0585 3.86099 12.8777 4.04182 12.6596 4.04182Z" fill="#292D32"/>
</svg>
