<svg width="50" height="49" viewBox="0 0 50 49" fill="none" xmlns="http://www.w3.org/2000/svg">
<g id="Frame 1000008488">
<g id="Group" opacity="0.78">
<path id="Vector" d="M36.0503 48.5H13.9497C6.7961 48.5 0.987915 42.6928 0.987915 35.5403V13.4597C0.987915 6.30725 6.7961 0.5 13.9497 0.5H36.0503C43.2039 0.5 49.0121 6.30725 49.0121 13.4597V35.5567C49.0121 42.7092 43.2039 48.5 36.0503 48.5Z" fill="#7AC52D"/>
<path id="Path_4606_00000074441230049993961360000017876659357571329466_" opacity="0.78" d="M7.99394 35.5073V22.4C7.99394 21.711 8.43694 21.104 9.07683 20.8908L14.7702 18.9714V25.9434C14.7702 26.8129 15.3116 27.5839 16.1156 27.8956C18.068 28.6338 21.53 29.9461 22.4652 30.2578C23.5153 30.6023 23.384 31.7999 23.2691 32.2756C23.2035 32.3084 23.1543 32.3412 23.0887 32.374L10.1269 37.0165C9.30653 37.3118 8.38772 36.8853 8.09239 36.0651C8.02676 35.8846 7.99394 35.7042 7.99394 35.5073Z" fill="white"/>
<path id="Path_4608_00000086660450569633857090000016539747283679051431_" opacity="0.53" d="M14.7699 18.973V13.9687C14.7699 12.8202 15.7052 11.885 16.8537 11.885C17.0998 11.885 17.3295 11.9342 17.5592 12.0163L23.3017 14.0836L23.4002 14.2805C23.7119 15.1337 23.2853 16.0689 22.4322 16.3806C22.4157 16.3806 22.3993 16.397 22.3665 16.397L14.7699 18.973Z" fill="white"/>
<path id="Path_4609_00000112606221540245739080000008722008768059387302_" d="M23.3017 14.083L23.4002 14.2799C23.7119 15.1329 23.2853 16.068 22.4322 16.3797C22.4157 16.3797 22.3993 16.3961 22.3665 16.3961L14.7699 18.9716V25.9436C14.7699 26.813 15.3114 27.584 16.1153 27.8957C18.0678 28.6339 21.5298 29.9463 22.465 30.258C23.515 30.6025 23.3838 31.8 23.2689 32.2758C24.1221 31.7836 24.6635 30.9142 24.7292 29.9299V16.2812C24.7292 15.6578 24.4831 15.0673 24.0729 14.6079C23.8596 14.3783 23.5971 14.1814 23.3017 14.083Z" fill="white"/>
<path id="Path_4610_00000072267408424359745780000012496695108204434850_" opacity="0.78" d="M42.0061 13.4926V26.5999C42.0061 27.2889 41.5795 27.8959 40.9232 28.1091L35.2299 30.0285V23.0565C35.2299 22.187 34.6885 21.416 33.8845 21.1043C31.9484 20.3661 28.4701 19.0538 27.5349 18.7421C26.4848 18.3976 26.6161 17.2 26.7309 16.7243C26.7966 16.6915 26.8458 16.6587 26.9114 16.6259L39.8732 11.9834C40.7099 11.6881 41.6123 12.1146 41.9077 12.9512C41.9733 13.1153 42.0061 13.3121 42.0061 13.4926Z" fill="white"/>
<path id="Path_4611_00000178913989813213415470000003199621757381703088_" d="M25.2543 20.9401V32.3413C25.2379 30.3399 25.2543 24.0898 25.2543 20.9401Z" fill="white"/>
<path id="Path_4612_00000060006110311992603400000016065086406538475154_" opacity="0.53" d="M35.2298 30.0282V35.0324C35.2298 36.1809 34.2946 37.1162 33.1461 37.1162C32.9 37.1162 32.6703 37.0669 32.4406 36.9849L26.7144 34.9176L26.616 34.7207C26.3042 33.8675 26.7308 32.9323 27.584 32.6206C27.6004 32.6206 27.6168 32.6041 27.6496 32.6041L35.2298 30.0282Z" fill="white"/>
<path id="Path_4613_00000140013397224597631140000012463730661851087517_" d="M26.7147 34.9171L26.6163 34.7203C26.3046 33.8672 26.7312 32.9322 27.5843 32.6205C27.6007 32.6205 27.6171 32.6041 27.65 32.6041L35.2465 30.0285V23.0566C35.2465 22.1871 34.7051 21.4161 33.9011 21.1044C31.9651 20.3662 28.4867 19.0538 27.5515 18.7421C26.5015 18.3976 26.6327 17.2001 26.7476 16.7244C25.8944 17.2165 25.3529 18.1024 25.2873 19.0702V32.7025C25.2873 33.3259 25.517 33.9164 25.9436 34.3758C26.1405 34.6218 26.4194 34.8023 26.7147 34.9171Z" fill="white"/>
</g>
</g>
</svg>
