<svg width="193" height="193" viewBox="0 0 193 193" fill="none" xmlns="http://www.w3.org/2000/svg">
<g id="Frame">
<path id="Vector" d="M172.308 40.0868C168.859 32.9046 164.177 27.6525 158.276 24.2829L155.207 22.7484C150.493 20.7077 145.193 19.8376 139.308 20.0907C139.023 20.1065 138.723 20.1223 138.422 20.154C138.106 20.1698 137.774 20.1856 137.457 20.2172C129.468 20.8658 120.941 23.8241 111.861 29.0604C102.796 34.3126 94.2537 41.1941 86.2806 49.7684C78.2916 58.3268 71.3468 67.6921 65.4461 77.8799C61.5861 84.5242 58.2798 91.3741 55.4797 98.4139C55.4639 98.4455 55.4639 98.4613 55.448 98.493C53.961 102.211 52.6005 106.039 51.4298 109.883C50.7812 111.987 50.1801 114.091 49.658 116.164C49.6422 116.195 49.6422 116.227 49.6422 116.258C47.3642 125.165 46.2568 133.802 46.2568 142.234C46.2568 152.644 47.9653 161.424 51.4298 168.606C52.1259 170.046 52.8694 171.422 53.6604 172.719C53.8186 172.972 53.961 173.209 54.1192 173.447C57.0775 178.019 60.6843 181.578 64.9398 184.109L67.4394 185.359L69.1162 186.182H69.1321C74.1785 188.222 79.8894 188.982 86.2806 188.475C94.2537 187.827 102.796 184.869 111.861 179.616C120.941 174.396 129.468 167.483 137.457 158.924C145.446 150.366 152.375 140.984 158.276 130.812C164.177 120.625 168.859 109.962 172.308 98.8094C175.741 87.6565 177.465 76.8832 177.465 66.4738C177.465 56.0645 175.741 47.2531 172.308 40.0868ZM145.225 70.8877L142.836 75.0166L102.686 144.275L74.7955 128.376L83.9867 112.541L102.686 123.203L139.751 59.2602L145.114 62.3292L146.459 63.0886L148.926 64.4963L145.225 70.8877Z" stroke="#325310" stroke-width="1.89836" stroke-linecap="round" stroke-linejoin="round"/>
<path id="Vector_2" d="M148.926 64.4964L145.224 70.8876L142.836 75.0165L102.685 144.275L74.7953 128.376L83.9865 112.541L102.685 123.203L139.751 59.2601L145.114 62.3291L146.458 63.0885L148.926 64.4964Z" fill="#AFE274" stroke="#325310" stroke-width="1.89836" stroke-linecap="round" stroke-linejoin="round"/>
<path id="Vector_3" d="M155.207 22.7486C150.492 20.7078 145.193 19.8378 139.308 20.0909C139.023 20.1067 138.722 20.1225 138.422 20.1542C138.105 20.17 137.773 20.1858 137.457 20.2174C129.468 20.866 120.941 23.8243 111.861 29.0606C102.796 34.3128 94.2533 41.1943 86.2802 49.7686C78.2913 58.327 71.3464 67.6923 65.4457 77.8801C61.5857 84.5244 58.2794 91.3743 55.4793 98.4141C55.4635 98.4457 55.4635 98.4615 55.4477 98.4932C53.9606 102.211 52.6001 106.039 51.4295 109.883C50.7809 111.987 50.1797 114.091 49.6577 116.164C49.6418 116.195 49.6418 116.227 49.6418 116.259C47.3638 125.165 46.2564 133.803 46.2564 142.235C46.2564 152.644 47.965 161.424 51.4295 168.606C52.1255 170.046 52.8691 171.422 53.66 172.719C53.8182 172.972 53.9606 173.21 54.1188 173.447C57.0771 178.019 60.684 181.578 64.9395 184.109L33.3001 168.29C29.0446 165.759 25.4377 162.199 22.4795 157.627C21.5145 156.124 20.6127 154.495 19.7901 152.786C16.3256 145.604 14.6171 136.824 14.6171 126.415C14.6171 117.951 15.7403 109.282 18.0183 100.344C18.5403 98.2717 19.1415 96.1677 19.7901 94.0637C20.9766 90.1879 22.3371 86.3437 23.8399 82.5944C26.64 75.5546 29.9464 68.7047 33.8064 62.0605C39.7071 51.8726 46.6519 42.5074 54.6409 33.9489C62.614 25.3747 71.1566 18.4931 80.2213 13.2409C89.3018 8.00459 97.8286 5.04631 105.818 4.3977C106.434 4.35024 107.067 4.30279 107.668 4.27115C113.585 4.01803 118.916 4.90393 123.646 6.96049L126.636 8.46336L155.207 22.7486Z" fill="#AFE274" stroke="#325310" stroke-width="1.89836" stroke-linecap="round" stroke-linejoin="round"/>
</g>
</svg>
