<svg width="20" height="21" viewBox="0 0 20 21" fill="none" xmlns="http://www.w3.org/2000/svg">
<g id="Component 1">
<path id="Vector" d="M17.9154 8.59104L4.26714 0.789608C3.93282 0.598917 3.5543 0.499332 3.16942 0.50081C2.78454 0.502287 2.40679 0.604775 2.07394 0.798027C1.74109 0.991279 1.46481 1.26852 1.27271 1.60204C1.08061 1.93555 0.979431 2.31365 0.979286 2.69854V18.3014C0.979253 18.6865 1.08039 19.0649 1.27258 19.3987C1.46477 19.7325 1.74127 20.0099 2.07439 20.2032C2.40751 20.3965 2.78556 20.4989 3.17071 20.5001C3.55585 20.5014 3.93456 20.4015 4.26893 20.2103L17.915 12.4085C18.2515 12.2162 18.5311 11.9384 18.7256 11.6032C18.9201 11.268 19.0225 10.8873 19.0225 10.4998C19.0225 10.1122 18.9201 9.73159 18.7256 9.39639C18.5311 9.06119 18.2518 8.78336 17.9154 8.59104ZM12.0011 6.74639L10.1271 9.35711L5.64464 3.11318L12.0011 6.74639ZM3.09 19.1589C2.96743 19.1479 2.84867 19.1106 2.74179 19.0496C2.61062 18.9732 2.50178 18.8638 2.42614 18.7321C2.3505 18.6005 2.3107 18.4514 2.31071 18.2996V2.69854C2.31024 2.48421 2.38967 2.2774 2.53351 2.11851C2.67735 1.95961 2.87525 1.86004 3.08857 1.83925L9.30643 10.5L3.09 19.1589ZM5.64464 17.8868L10.1271 11.6428L12.0011 14.2532L5.64464 17.8868ZM17.2518 11.251L13.1646 13.5882L10.9479 10.5L13.165 7.41175L17.2536 9.74997C17.386 9.82562 17.4961 9.93493 17.5726 10.0668C17.6492 10.1987 17.6895 10.3485 17.6895 10.501C17.6895 10.6535 17.6492 10.8033 17.5726 10.9352C17.4961 11.0671 17.386 11.1765 17.2536 11.2521L17.2518 11.251Z" fill="#242323"/>
</g>
</svg>
