<svg width="20" height="21" viewBox="0 0 20 21" fill="none" xmlns="http://www.w3.org/2000/svg">
<g id="Component 1">
<path id="Vector" d="M17.9154 8.59073L4.26714 0.789302C3.93282 0.598612 3.5543 0.499027 3.16942 0.500504C2.78454 0.501982 2.40679 0.60447 2.07394 0.797722C1.74109 0.990974 1.46481 1.26822 1.27271 1.60173C1.08061 1.93525 0.979431 2.31335 0.979286 2.69823V18.3011C0.979253 18.6862 1.08039 19.0646 1.27258 19.3984C1.46477 19.7322 1.74127 20.0096 2.07439 20.2029C2.40751 20.3962 2.78556 20.4986 3.17071 20.4998C3.55585 20.5011 3.93456 20.4011 4.26893 20.21L17.915 12.4082C18.2515 12.2159 18.5311 11.9381 18.7256 11.6029C18.9201 11.2677 19.0225 10.887 19.0225 10.4995C19.0225 10.1119 18.9201 9.73129 18.7256 9.39609C18.5311 9.06089 18.2518 8.78305 17.9154 8.59073ZM12.0011 6.74609L10.1271 9.3568L5.64464 3.11287L12.0011 6.74609ZM3.09 19.1586C2.96743 19.1476 2.84867 19.1103 2.74179 19.0493C2.61062 18.9729 2.50178 18.8634 2.42614 18.7318C2.3505 18.6002 2.3107 18.4511 2.31071 18.2993V2.69823C2.31024 2.4839 2.38967 2.27709 2.53351 2.1182C2.67735 1.95931 2.87525 1.85974 3.08857 1.83895L9.30643 10.4997L3.09 19.1586ZM5.64464 17.8864L10.1271 11.6425L12.0011 14.2529L5.64464 17.8864ZM17.2518 11.2507L13.1646 13.5879L10.9479 10.4997L13.165 7.41145L17.2536 9.74966C17.386 9.82531 17.4961 9.93463 17.5726 10.0665C17.6492 10.1984 17.6895 10.3482 17.6895 10.5007C17.6895 10.6532 17.6492 10.803 17.5726 10.9349C17.4961 11.0668 17.386 11.1762 17.2536 11.2518L17.2518 11.2507Z" fill="#242323"/>
</g>
</svg>
