<svg width="1440" height="1442" viewBox="0 0 1440 1442" fill="none" xmlns="http://www.w3.org/2000/svg">
<line x1="-156" y1="1411.12" x2="1355.58" y2="1411.12" stroke="#9EB784" stroke-opacity="0.1" stroke-width="1.2607"/>
<line x1="-156" y1="765.644" x2="1355.58" y2="765.644" stroke="#9EB784" stroke-opacity="0.1" stroke-width="1.2607"/>
<line x1="-156" y1="1088.38" x2="1355.58" y2="1088.38" stroke="#9EB784" stroke-opacity="0.1" stroke-width="1.2607"/>
<line x1="-156" y1="442.906" x2="1355.58" y2="442.906" stroke="#9EB784" stroke-opacity="0.1" stroke-width="1.2607"/>
<line x1="-156" y1="120.166" x2="1355.58" y2="120.166" stroke="#9EB784" stroke-opacity="0.1" stroke-width="1.2607"/>
<line x1="-156" y1="1249.75" x2="1355.58" y2="1249.75" stroke="#9EB784" stroke-opacity="0.1" stroke-width="1.2607"/>
<line x1="-156" y1="604.274" x2="1355.58" y2="604.274" stroke="#9EB784" stroke-opacity="0.1" stroke-width="1.2607"/>
<line x1="-156" y1="927.012" x2="1355.58" y2="927.012" stroke="#9EB784" stroke-opacity="0.1" stroke-width="1.2607"/>
<line x1="-156" y1="281.536" x2="1355.58" y2="281.536" stroke="#9EB784" stroke-opacity="0.1" stroke-width="1.2607"/>
<line x1="-156" y1="1330.44" x2="1355.58" y2="1330.44" stroke="#9EB784" stroke-opacity="0.1" stroke-width="1.2607"/>
<line x1="-156" y1="684.959" x2="1355.58" y2="684.959" stroke="#9EB784" stroke-opacity="0.1" stroke-width="1.2607"/>
<line x1="-156" y1="1007.7" x2="1355.58" y2="1007.7" stroke="#9EB784" stroke-opacity="0.1" stroke-width="1.2607"/>
<line x1="-156" y1="362.221" x2="1355.58" y2="362.221" stroke="#9EB784" stroke-opacity="0.1" stroke-width="1.2607"/>
<line x1="-156" y1="39.4824" x2="1355.58" y2="39.4824" stroke="#9EB784" stroke-opacity="0.1" stroke-width="1.2607"/>
<line x1="-156" y1="1169.07" x2="1355.58" y2="1169.07" stroke="#9EB784" stroke-opacity="0.1" stroke-width="1.2607"/>
<line x1="-156" y1="523.589" x2="1355.58" y2="523.589" stroke="#9EB784" stroke-opacity="0.1" stroke-width="1.2607"/>
<line x1="-156" y1="846.329" x2="1355.58" y2="846.329" stroke="#9EB784" stroke-opacity="0.1" stroke-width="1.2607"/>
<line x1="-156" y1="200.851" x2="1355.58" y2="200.851" stroke="#9EB784" stroke-opacity="0.1" stroke-width="1.2607"/>
<line x1="536.756" y1="91.8013" x2="536.756" y2="1259.21" stroke="#9EB784" stroke-opacity="0.1" stroke-width="1.2607"/>
<line x1="214.016" y1="91.8013" x2="214.016" y2="1259.21" stroke="#9EB784" stroke-opacity="0.1" stroke-width="1.2607"/>
<line x1="859.492" y1="91.8013" x2="859.492" y2="1259.21" stroke="#9EB784" stroke-opacity="0.1" stroke-width="1.2607"/>
<line x1="1182.23" y1="91.8013" x2="1182.23" y2="1259.21" stroke="#9EB784" stroke-opacity="0.1" stroke-width="1.2607"/>
<line x1="52.6455" y1="91.8013" x2="52.6454" y2="1259.21" stroke="#9EB784" stroke-opacity="0.1" stroke-width="1.2607"/>
<line x1="698.121" y1="91.8013" x2="698.121" y2="1259.21" stroke="#9EB784" stroke-opacity="0.1" stroke-width="1.2607"/>
<line x1="375.386" y1="91.8013" x2="375.386" y2="1259.21" stroke="#9EB784" stroke-opacity="0.1" stroke-width="1.2607"/>
<line x1="1020.86" y1="91.8013" x2="1020.86" y2="1259.21" stroke="#9EB784" stroke-opacity="0.1" stroke-width="1.2607"/>
<line x1="1343.6" y1="91.8013" x2="1343.6" y2="1259.21" stroke="#9EB784" stroke-opacity="0.1" stroke-width="1.2607"/>
<line x1="617.439" y1="91.8013" x2="617.439" y2="1259.21" stroke="#9EB784" stroke-opacity="0.1" stroke-width="1.2607"/>
<line x1="294.699" y1="91.8013" x2="294.698" y2="1259.21" stroke="#9EB784" stroke-opacity="0.1" stroke-width="1.2607"/>
<line x1="940.179" y1="91.8013" x2="940.179" y2="1259.21" stroke="#9EB784" stroke-opacity="0.1" stroke-width="1.2607"/>
<line x1="1262.92" y1="91.8013" x2="1262.92" y2="1259.21" stroke="#9EB784" stroke-opacity="0.1" stroke-width="1.2607"/>
<line x1="133.333" y1="91.8013" x2="133.333" y2="1259.21" stroke="#9EB784" stroke-opacity="0.1" stroke-width="1.2607"/>
<line x1="778.809" y1="91.8013" x2="778.809" y2="1259.21" stroke="#9EB784" stroke-opacity="0.1" stroke-width="1.2607"/>
<line x1="456.069" y1="91.8013" x2="456.069" y2="1259.21" stroke="#9EB784" stroke-opacity="0.1" stroke-width="1.2607"/>
<line x1="1101.55" y1="91.8013" x2="1101.55" y2="1259.21" stroke="#9EB784" stroke-opacity="0.1" stroke-width="1.2607"/>
<line x1="1424.29" y1="91.8013" x2="1424.29" y2="1259.21" stroke="#9EB784" stroke-opacity="0.1" stroke-width="1.2607"/>
</svg>
