<svg width="421" height="284" viewBox="0 0 421 284" fill="none" xmlns="http://www.w3.org/2000/svg">
<g opacity="0.6">
<path d="M272.039 251.685L270.609 248.824C266.079 236.428 272.277 222.841 284.675 218.312C284.914 218.312 285.152 218.073 285.629 218.073L396.016 180.648V79.337C396.016 66.7029 388.148 55.4992 376.466 50.97C348.332 40.243 297.788 21.1727 284.198 16.6435C268.94 11.6376 270.847 -5.76403 272.516 -12.677C260.118 -5.52565 252.25 7.34675 251.297 21.4111V219.504C251.297 228.562 254.635 237.143 260.833 243.818C263.694 247.394 267.748 250.016 272.039 251.685Z" fill="#AFE274"/>
<path opacity="0.53" d="M395.769 180.645V253.362C395.769 270.051 382.179 283.641 365.49 283.641C361.913 283.641 358.575 282.926 355.238 281.734L272.03 251.693L270.6 248.832C266.07 236.435 272.269 222.845 284.666 218.315C284.905 218.315 285.143 218.077 285.62 218.077L395.769 180.645Z" fill="#AFE274"/>
<path d="M250.816 48.5861V214.259C250.577 185.177 250.816 94.3547 250.816 48.5861Z" fill="#AFE274"/>
<path opacity="0.78" d="M494.242 -59.6404V130.824C494.242 140.836 488.043 149.656 478.507 152.755L395.776 180.645V79.3341C395.776 66.7001 387.908 55.4964 376.226 50.9672C348.093 40.2402 297.548 21.1698 283.959 16.6406C268.7 11.6347 270.607 -5.76688 272.276 -12.6799C273.23 -13.1566 273.945 -13.6333 274.899 -14.1101L463.248 -81.5712C475.407 -85.8621 488.52 -79.6642 492.812 -67.5069C493.765 -65.1231 494.242 -62.2626 494.242 -59.6404Z" fill="#AFE274"/>
<path d="M222.446 -51.0559L223.876 -48.1955C228.406 -35.7998 222.207 -22.2121 209.81 -17.6829C209.571 -17.6829 209.333 -17.4446 208.856 -17.4446L98.4691 19.9808V121.292C98.4691 133.926 106.337 145.129 118.019 149.659C146.391 160.386 196.697 179.456 210.287 183.985C225.545 188.991 223.638 206.393 221.969 213.306C234.367 206.154 242.234 193.52 243.188 179.217V-19.1133C243.188 -28.1717 239.612 -36.7533 233.651 -43.4279C230.552 -46.7652 226.737 -49.6256 222.446 -51.0559Z" fill="#AFE274"/>
<path opacity="0.53" d="M98.4691 19.9961V-52.721C98.4691 -69.4102 112.059 -83 128.748 -83C132.324 -83 135.662 -82.2848 139 -81.0927L222.446 -51.0521L223.876 -48.1912C228.406 -35.7935 222.207 -22.2036 209.81 -17.6737C209.571 -17.6737 209.333 -17.4354 208.856 -17.4354L98.4691 19.9961Z" fill="#AFE274"/>
<path opacity="0.78" d="M0 260.265V69.8008C0 59.7889 6.43727 50.9691 15.7355 47.8701L98.4662 19.9799V121.291C98.4662 133.925 106.334 145.128 118.016 149.658C146.388 160.385 196.694 179.455 210.284 183.984C225.542 188.99 223.635 206.392 221.966 213.305C221.012 213.781 220.297 214.258 219.343 214.735L30.9942 282.196C19.0733 286.487 5.72202 280.289 1.43052 268.37C0.476848 265.748 0 263.126 0 260.265Z" fill="#AFE274"/>
</g>
</svg>
