<svg width="165" height="127" viewBox="0 0 165 127" fill="none" xmlns="http://www.w3.org/2000/svg">
<g id="Group 1370">
<path id="Path_4613_00000140013397224597631140000012463730661851087517_" d="M97.8609 120.396L97.3463 119.367C95.7167 114.908 97.9467 110.02 102.406 108.391C102.492 108.391 102.578 108.305 102.75 108.305L142.459 94.8422V58.3976C142.459 53.8527 139.629 49.8224 135.426 48.1931C125.306 44.3343 107.124 37.4741 102.235 35.8448C96.746 34.044 97.4321 27.7841 98.0324 25.2973C93.5726 27.8699 90.7423 32.5005 90.3993 37.5598V108.82C90.3993 112.078 91.6 115.165 93.8299 117.566C94.8591 118.853 96.3171 119.796 97.8609 120.396Z" fill="#9FDBF5"/>
<path id="Path_4612_00000060006110311992603400000016065086406538475154_" opacity="0.53" d="M142.37 94.8412V121C142.37 127.003 137.481 131.892 131.478 131.892C130.191 131.892 128.991 131.635 127.79 131.206L97.8576 120.399L97.343 119.37C95.7135 114.91 97.9434 110.022 102.403 108.392C102.489 108.392 102.575 108.306 102.746 108.306L142.37 94.8412Z" fill="#9FDBF5"/>
<path id="Path_4611_00000178913989813213415470000003199621757381703088_" d="M90.226 47.3356V106.933C90.1402 96.4715 90.226 63.8 90.226 47.3356Z" fill="#9FDBF5"/>
<path id="Path_4610_00000072267408424359745780000012496695108204434850_" opacity="0.78" d="M177.794 8.40319V76.9191C177.794 80.5206 175.564 83.6935 172.134 84.8083L142.373 94.8412V58.3966C142.373 53.8517 139.543 49.8214 135.34 48.1921C125.22 44.3333 107.037 37.4731 102.149 35.8438C96.6596 34.043 97.3458 27.7832 97.9461 25.2963C98.2892 25.1248 98.5465 24.9534 98.8896 24.7819L166.645 0.513992C171.019 -1.02954 175.736 1.20003 177.28 5.57338C177.623 6.4309 177.794 7.45992 177.794 8.40319Z" fill="#9FDBF5"/>
<path id="Path_4609_00000112606221540245739080000008722008768059387302_" d="M80.0206 11.4911L80.5352 12.52C82.1648 16.9791 79.9349 21.8671 75.475 23.4963C75.3893 23.4963 75.3035 23.5821 75.132 23.5821L35.4224 37.0451V73.4897C35.4224 78.0346 38.2527 82.0649 42.4552 83.6942C52.6613 87.553 70.7579 94.4132 75.6466 96.0425C81.1356 97.8433 80.4495 104.103 79.8491 106.59C84.3089 104.017 87.1392 99.4726 87.4823 94.3275V22.9818C87.4823 19.7232 86.1958 16.6361 84.0516 14.2351C82.9367 13.0346 81.5644 12.0056 80.0206 11.4911Z" fill="#9FDBF5"/>
<path id="Path_4608_00000086660450569633857090000016539747283679051431_" opacity="0.53" d="M35.4224 37.0509V10.8923C35.4224 4.88867 40.311 0 46.3146 0C47.6011 0 48.8019 0.257287 50.0026 0.686116L80.0206 11.4926L80.5352 12.5218C82.1648 16.9816 79.9349 21.8703 75.475 23.4999C75.3893 23.4999 75.3035 23.5856 75.132 23.5856L35.4224 37.0509Z" fill="#9FDBF5"/>
<path id="Path_4606_00000074441230049993961360000017876659357571329466_" opacity="0.78" d="M0 123.483V54.967C0 51.3654 2.31568 48.1926 5.66055 47.0778L35.4213 37.0448V73.4894C35.4213 78.0343 38.2516 82.0646 42.4541 83.6939C52.6602 87.5527 70.7568 94.4129 75.6455 96.0422C81.1345 97.843 80.4484 104.103 79.848 106.59C79.505 106.761 79.2476 106.933 78.9046 107.104L11.1496 131.372C6.86127 132.916 2.05839 130.686 0.5146 126.398C0.171537 125.455 0 124.512 0 123.483Z" fill="#9FDBF5"/>
</g>
</svg>
