<svg width="94" height="71" viewBox="0 0 94 71" fill="none" xmlns="http://www.w3.org/2000/svg">
<path d="M51.3381 64.102L51.0681 63.5622C50.2133 61.2229 51.3831 58.6588 53.7227 57.804C53.7677 57.804 53.8127 57.759 53.9027 57.759L74.7344 50.6963V31.5774C74.7344 29.1931 73.2497 27.0788 71.045 26.2241C65.7358 24.1997 56.1973 20.6009 53.6327 19.7461C50.7532 18.8014 51.1131 15.5175 51.4281 14.2129C49.0885 15.5625 47.6037 17.9917 47.4237 20.6458V58.029C47.4237 59.7384 48.0536 61.3579 49.2234 62.6175C49.7633 63.2923 50.5282 63.7871 51.3381 64.102Z" fill="#AFE274"/>
<path opacity="0.53" d="M74.6878 50.6953V64.4182C74.6878 67.5677 72.1232 70.1323 68.9737 70.1323C68.2988 70.1323 67.6689 69.9973 67.039 69.7723L51.3364 64.1032L51.0665 63.5633C50.2116 61.2237 51.3814 58.6591 53.721 57.8042C53.766 57.8042 53.811 57.7592 53.901 57.7592L74.6878 50.6953Z" fill="#AFE274"/>
<path d="M47.3335 25.7734V57.0385C47.2885 51.5502 47.3335 34.4107 47.3335 25.7734Z" fill="#AFE274"/>
<path opacity="0.78" d="M93.2709 5.35006V41.2936C93.2709 43.183 92.101 44.8475 90.3013 45.4323L74.6888 50.6956V31.5767C74.6888 29.1925 73.204 27.0781 70.9993 26.2234C65.6902 24.1991 56.1517 20.6002 53.5871 19.7455C50.7075 18.8008 51.0675 15.5168 51.3824 14.2122C51.5624 14.1223 51.6974 14.0323 51.8773 13.9423L87.4218 1.21137C89.7164 0.401625 92.191 1.57126 93.0009 3.86553C93.1808 4.31539 93.2709 4.85521 93.2709 5.35006Z" fill="#AFE274"/>
<path d="M41.9793 6.96973L42.2493 7.50953C43.1042 9.84879 41.9343 12.413 39.5947 13.2677C39.5497 13.2677 39.5047 13.3127 39.4147 13.3127L18.583 20.3755V39.4944C18.583 41.8786 20.0678 43.9929 22.2724 44.8476C27.6266 46.872 37.1201 50.4709 39.6847 51.3256C42.5642 52.2703 42.2043 55.5542 41.8894 56.8588C44.229 55.5093 45.7138 53.125 45.8937 50.4259V12.9978C45.8937 11.2883 45.2188 9.66885 44.094 8.40925C43.5091 7.77945 42.7892 7.23964 41.9793 6.96973Z" fill="#AFE274"/>
<path opacity="0.53" d="M18.583 20.3784V6.65552C18.583 3.50601 21.1476 0.941406 24.2971 0.941406C24.972 0.941406 25.6019 1.07638 26.2318 1.30134L41.9793 6.97047L42.2493 7.51037C43.1042 9.85 41.9343 12.4146 39.5947 13.2695C39.5497 13.2695 39.5047 13.3145 39.4147 13.3145L18.583 20.3784Z" fill="#AFE274"/>
<path opacity="0.78" d="M0 65.7206V29.777C0 27.8876 1.21481 26.2231 2.96954 25.6383L18.5821 20.375V39.4939C18.5821 41.8782 20.0669 43.9925 22.2715 44.8472C27.6257 46.8716 37.1192 50.4704 39.6838 51.3251C42.5633 52.2698 42.2034 55.5538 41.8884 56.8584C41.7085 56.9483 41.5735 57.0383 41.3935 57.1283L5.84908 69.8592C3.59944 70.669 1.07983 69.4994 0.26996 67.2501C0.0899886 66.7552 0 66.2604 0 65.7206Z" fill="#AFE274"/>
</svg>
