<svg width="705" height="654" viewBox="0 0 705 654" fill="none" xmlns="http://www.w3.org/2000/svg">
<path d="M485.156 596.877L482.605 591.775C474.526 569.669 485.581 545.437 507.691 537.36C508.116 537.36 508.542 536.934 509.392 536.934L706.257 470.189V289.511C706.257 266.98 692.225 246.999 671.391 238.921C621.218 219.791 531.077 185.781 506.841 177.703C479.629 168.776 483.03 137.741 486.006 125.413C463.896 138.167 449.865 161.123 448.164 186.206V539.485C448.164 555.64 454.117 570.944 465.172 582.848C470.274 589.225 477.503 593.901 485.156 596.877Z" fill="#AFE274"/>
<path opacity="0.53" d="M705.816 470.185V599.869C705.816 629.633 681.58 653.869 651.816 653.869C645.438 653.869 639.486 652.593 633.533 650.467L485.14 596.893L482.589 591.79C474.51 569.68 485.565 545.445 507.675 537.366C508.101 537.366 508.526 536.941 509.376 536.941L705.816 470.185Z" fill="#AFE274"/>
<path d="M447.304 234.671V530.134C446.879 478.268 447.304 316.295 447.304 234.671Z" fill="#AFE274"/>
<path opacity="0.78" d="M881.434 41.6618V381.337C881.434 399.192 870.379 414.922 853.371 420.449L705.829 470.188V289.51C705.829 266.978 691.798 246.997 670.963 238.92C620.79 219.789 530.649 185.779 506.413 177.702C479.201 168.774 482.602 137.74 485.579 125.412C487.279 124.561 488.555 123.711 490.256 122.861L826.159 2.55017C847.844 -5.10209 871.23 5.95128 878.883 27.6327C880.584 31.8839 881.434 36.9854 881.434 41.6618Z" fill="#AFE274"/>
<path d="M396.713 56.9683L399.264 62.0696C407.342 84.1761 396.287 108.408 374.177 116.486C373.752 116.486 373.327 116.911 372.477 116.911L175.612 183.656V364.334C175.612 386.866 189.643 406.846 210.478 414.924C261.076 434.054 350.792 468.064 375.028 476.142C402.24 485.069 398.839 516.104 395.862 528.432C417.972 515.678 432.004 493.147 433.704 467.639V113.935C433.704 97.7801 427.327 82.4756 416.697 70.5721C411.169 64.6203 404.366 59.519 396.713 56.9683Z" fill="#AFE274"/>
<path opacity="0.53" d="M175.612 183.684V53.9997C175.612 24.2361 199.848 0 229.611 0C235.989 0 241.942 1.27553 247.895 3.4015L396.713 56.9761L399.264 62.0782C407.342 84.1883 396.287 108.425 374.177 116.503C373.752 116.503 373.327 116.928 372.477 116.928L175.612 183.684Z" fill="#AFE274"/>
<path opacity="0.78" d="M0 612.179V272.504C0 254.649 11.4803 238.919 28.0628 233.393L175.605 183.653V364.331C175.605 386.863 189.637 406.844 210.471 414.921C261.069 434.052 350.785 468.062 375.021 476.139C402.234 485.067 398.832 516.101 395.856 528.43C394.155 529.28 392.879 530.13 391.179 530.981L55.2752 651.291C34.0155 658.943 10.2047 647.89 2.55119 626.634C0.850414 621.957 0 617.281 0 612.179Z" fill="#AFE274"/>
</svg>
