<svg width="32" height="33" viewBox="0 0 32 33" fill="none" xmlns="http://www.w3.org/2000/svg">
<rect x="0.25" y="0.421387" width="31.5" height="31.5" rx="15.75" fill="#242323"/>
<rect x="0.25" y="0.421387" width="31.5" height="31.5" rx="15.75" stroke="#EBEBEB" stroke-width="0.5"/>
<g clip-path="url(#clip0_3940_11453)">
<path fill-rule="evenodd" clip-rule="evenodd" d="M13.6304 9.83243C14.3578 9.79895 14.5898 9.7915 16.4428 9.7915C18.2958 9.7915 18.5278 9.79957 19.2546 9.83243C19.9814 9.8653 20.4775 9.98127 20.9116 10.1493C21.3662 10.3211 21.7786 10.5896 22.1197 10.9369C22.467 11.2774 22.7349 11.6892 22.9061 12.1444C23.0747 12.5785 23.1901 13.0746 23.2236 13.8002C23.2571 14.5289 23.2645 14.7608 23.2645 16.6132C23.2645 18.4662 23.2564 18.6982 23.2236 19.4256C23.1907 20.1512 23.0747 20.6473 22.9061 21.0814C22.7349 21.5367 22.4665 21.9491 22.1197 22.2901C21.7786 22.6374 21.3662 22.9053 20.9116 23.0765C20.4775 23.2451 19.9814 23.3605 19.2558 23.394C18.5278 23.4275 18.2958 23.4349 16.4428 23.4349C14.5898 23.4349 14.3578 23.4269 13.6304 23.394C12.9048 23.3611 12.4087 23.2451 11.9746 23.0765C11.5193 22.9053 11.1069 22.6369 10.7659 22.2901C10.4188 21.9494 10.1503 21.5372 9.97892 21.082C9.81086 20.6479 9.69551 20.1518 9.66202 19.4262C9.62854 18.6975 9.62109 18.4656 9.62109 16.6132C9.62109 14.7602 9.62916 14.5282 9.66202 13.8014C9.69489 13.0746 9.81086 12.5785 9.97892 12.1444C10.1505 11.6892 10.4193 11.277 10.7665 10.9363C11.107 10.5893 11.5191 10.3208 11.974 10.1493C12.4081 9.98127 12.9042 9.86592 13.6298 9.83243H13.6304ZM19.1994 11.0603C18.48 11.0275 18.2642 11.0207 16.4428 11.0207C14.6214 11.0207 14.4056 11.0275 13.6862 11.0603C13.0208 11.0907 12.6599 11.2017 12.4192 11.2954C12.1011 11.4194 11.8735 11.5664 11.6347 11.8051C11.4084 12.0253 11.2342 12.2934 11.125 12.5896C11.0313 12.8303 10.9203 13.1912 10.8899 13.8566C10.8571 14.576 10.8502 14.7918 10.8502 16.6132C10.8502 18.4346 10.8571 18.6504 10.8899 19.3698C10.9203 20.0352 11.0313 20.3962 11.125 20.6368C11.2341 20.9326 11.4084 21.2011 11.6347 21.4213C11.8549 21.6476 12.1234 21.8219 12.4192 21.931C12.6599 22.0247 13.0208 22.1357 13.6862 22.1661C14.4056 22.1989 14.6208 22.2058 16.4428 22.2058C18.2648 22.2058 18.48 22.1989 19.1994 22.1661C19.8648 22.1357 20.2257 22.0247 20.4664 21.931C20.7845 21.807 21.0121 21.66 21.2509 21.4213C21.4772 21.2011 21.6515 20.9326 21.7606 20.6368C21.8543 20.3962 21.9653 20.0352 21.9957 19.3698C22.0285 18.6504 22.0354 18.4346 22.0354 16.6132C22.0354 14.7918 22.0285 14.576 21.9957 13.8566C21.9653 13.1912 21.8543 12.8303 21.7606 12.5896C21.6366 12.2715 21.4896 12.0439 21.2509 11.8051C21.0307 11.5788 20.7626 11.4047 20.4664 11.2954C20.2257 11.2017 19.8648 11.0907 19.1994 11.0603ZM15.5715 18.7162C16.0581 18.9187 16.5999 18.9461 17.1045 18.7935C17.609 18.6409 18.0449 18.318 18.3378 17.8797C18.6306 17.4415 18.7622 16.9151 18.7101 16.3906C18.658 15.8661 18.4254 15.376 18.0521 15.0039C17.8141 14.7661 17.5263 14.5839 17.2095 14.4707C16.8927 14.3574 16.5547 14.3158 16.2199 14.3488C15.885 14.3818 15.5617 14.4887 15.2731 14.6617C14.9845 14.8347 14.7378 15.0695 14.5509 15.3492C14.364 15.629 14.2414 15.9467 14.192 16.2795C14.1425 16.6124 14.1675 16.952 14.2651 17.274C14.3628 17.596 14.5305 17.8923 14.7564 18.1417C14.9823 18.3911 15.2607 18.5873 15.5715 18.7162ZM13.9634 14.1338C14.289 13.8082 14.6756 13.55 15.101 13.3737C15.5264 13.1975 15.9823 13.1068 16.4428 13.1068C16.9033 13.1068 17.3592 13.1975 17.7846 13.3737C18.21 13.55 18.5966 13.8082 18.9222 14.1338C19.2478 14.4594 19.5061 14.846 19.6823 15.2714C19.8585 15.6968 19.9492 16.1527 19.9492 16.6132C19.9492 17.0737 19.8585 17.5296 19.6823 17.955C19.5061 18.3805 19.2478 18.767 18.9222 19.0926C18.2646 19.7502 17.3727 20.1196 16.4428 20.1196C15.5129 20.1196 14.621 19.7502 13.9634 19.0926C13.3058 18.435 12.9364 17.5432 12.9364 16.6132C12.9364 15.6833 13.3058 14.7914 13.9634 14.1338ZM20.7268 13.629C20.8075 13.5529 20.8721 13.4614 20.9168 13.3599C20.9615 13.2583 20.9853 13.1489 20.9869 13.038C20.9886 12.9271 20.9679 12.817 20.9262 12.7142C20.8845 12.6114 20.8226 12.518 20.7442 12.4396C20.6657 12.3612 20.5724 12.2993 20.4696 12.2576C20.3668 12.2159 20.2567 12.1952 20.1458 12.1968C20.0349 12.1984 19.9254 12.2223 19.8239 12.267C19.7224 12.3117 19.6308 12.3762 19.5547 12.4569C19.4067 12.6138 19.3257 12.8223 19.3288 13.038C19.332 13.2537 19.419 13.4596 19.5716 13.6122C19.7241 13.7647 19.9301 13.8518 20.1458 13.8549C20.3615 13.8581 20.5699 13.777 20.7268 13.629Z" fill="#FDFDFD"/>
</g>
<defs>
<clipPath id="clip0_3940_11453">
<rect width="14.8837" height="14.8837" fill="white" transform="translate(9 9.17139)"/>
</clipPath>
</defs>
</svg>
