<svg width="59" height="23" viewBox="0 0 59 23" fill="none" xmlns="http://www.w3.org/2000/svg">
<g id="Levels">
<g id="Battery">
<rect id="Border" opacity="0.35" x="33.8481" y="9.71244" width="9.8396" height="4.9198" rx="1.55794" stroke="black" stroke-width="0.409984"/>
<path id="Cap" opacity="0.4" d="M44.3027 11.4673V13.1382C44.6326 12.9966 44.8471 12.6674 44.8471 12.3027C44.8471 11.938 44.6326 11.6088 44.3027 11.4673Z" fill="black"/>
<rect id="Capacity" x="34.4629" y="10.327" width="8.60965" height="3.68985" rx="1.02496" fill="black"/>
</g>
<path id="Wifi" fill-rule="evenodd" clip-rule="evenodd" d="M27.1946 10.7802C28.2143 10.7802 29.195 11.1583 29.934 11.8362C29.9896 11.8885 30.0786 11.8878 30.1334 11.8347L30.6653 11.3167C30.6931 11.2897 30.7086 11.2532 30.7083 11.2152C30.7081 11.1772 30.6922 11.1409 30.6641 11.1142C28.7245 9.32065 25.6645 9.32065 23.7248 11.1142C23.6967 11.1408 23.6808 11.1772 23.6805 11.2152C23.6803 11.2532 23.6957 11.2897 23.7235 11.3167L24.2556 11.8347C24.3103 11.8879 24.3994 11.8886 24.455 11.8362C25.1941 11.1582 26.1749 10.7802 27.1946 10.7802ZM27.1933 12.5104C27.7497 12.5104 28.2864 12.7202 28.6988 13.0991C28.7546 13.1528 28.8425 13.1517 28.8969 13.0964L29.4247 12.5555C29.4525 12.5272 29.4679 12.4887 29.4675 12.4487C29.4671 12.4087 29.4509 12.3705 29.4225 12.3427C28.1664 11.1575 26.2212 11.1575 24.965 12.3427C24.9367 12.3705 24.9205 12.4087 24.9201 12.4487C24.9197 12.4887 24.9352 12.5272 24.9631 12.5555L25.4907 13.0964C25.5451 13.1517 25.6329 13.1528 25.6887 13.0991C26.101 12.7204 26.6371 12.5107 27.1933 12.5104ZM28.2282 13.6557C28.229 13.6989 28.2138 13.7406 28.1862 13.7708L27.2938 14.7772C27.2677 14.8068 27.232 14.8234 27.1948 14.8234C27.1576 14.8234 27.1219 14.8068 27.0958 14.7772L26.2032 13.7708C26.1756 13.7405 26.1605 13.6989 26.1613 13.6557C26.1621 13.6125 26.1788 13.5716 26.2075 13.5426C26.7775 13.004 27.6121 13.004 28.1821 13.5426C28.2107 13.5716 28.2274 13.6125 28.2282 13.6557Z" fill="black"/>
<path id="Cellular Connection" fill-rule="evenodd" clip-rule="evenodd" d="M20.6059 10.1972C20.6059 9.93769 20.4101 9.72729 20.1686 9.72729H19.7313C19.4898 9.72729 19.294 9.93769 19.294 10.1972V14.27C19.294 14.5295 19.4898 14.7399 19.7313 14.7399H20.1686C20.4101 14.7399 20.6059 14.5295 20.6059 14.27V10.1972ZM17.558 10.7298H17.9954C18.2369 10.7298 18.4327 10.9453 18.4327 11.211V14.2587C18.4327 14.5245 18.2369 14.7399 17.9954 14.7399H17.558C17.3165 14.7399 17.1207 14.5245 17.1207 14.2587V11.211C17.1207 10.9453 17.3165 10.7298 17.558 10.7298ZM15.7821 11.8159H15.3448C15.1032 11.8159 14.9075 12.0341 14.9075 12.3032V14.2526C14.9075 14.5217 15.1032 14.7399 15.3448 14.7399H15.7821C16.0236 14.7399 16.2194 14.5217 16.2194 14.2526V12.3032C16.2194 12.0341 16.0236 11.8159 15.7821 11.8159ZM13.6089 12.8184H13.1715C12.93 12.8184 12.7342 13.0335 12.7342 13.2988V14.2595C12.7342 14.5249 12.93 14.7399 13.1715 14.7399H13.6089C13.8504 14.7399 14.0462 14.5249 14.0462 14.2595V13.2988C14.0462 13.0335 13.8504 12.8184 13.6089 12.8184Z" fill="black"/>
</g>
</svg>
