<svg width="79" height="13" viewBox="0 0 79 13" fill="none" xmlns="http://www.w3.org/2000/svg">
<path id="Line 110" d="M0.46967 5.96967C0.176777 6.26256 0.176777 6.73744 0.46967 7.03033L5.24264 11.8033C5.53553 12.0962 6.01041 12.0962 6.3033 11.8033C6.59619 11.5104 6.59619 11.0355 6.3033 10.7426L2.06066 6.5L6.3033 2.25736C6.59619 1.96447 6.59619 1.48959 6.3033 1.1967C6.01041 0.903807 5.53553 0.903806 5.24264 1.1967L0.46967 5.96967ZM78.5303 7.03034C78.8232 6.73744 78.8232 6.26257 78.5303 5.96968L73.7574 1.19671C73.4645 0.903812 72.9896 0.903812 72.6967 1.19671C72.4038 1.4896 72.4038 1.96447 72.6967 2.25737L76.9393 6.50001L72.6967 10.7426C72.4038 11.0355 72.4038 11.5104 72.6967 11.8033C72.9896 12.0962 73.4645 12.0962 73.7574 11.8033L78.5303 7.03034ZM1 7.25L2.925 7.25L2.925 5.75L1 5.75L1 7.25ZM6.775 7.25L10.625 7.25L10.625 5.75L6.775 5.75L6.775 7.25ZM14.475 7.25L18.325 7.25L18.325 5.75L14.475 5.75L14.475 7.25ZM22.175 7.25L26.025 7.25L26.025 5.75L22.175 5.75L22.175 7.25ZM29.875 7.25L33.725 7.25L33.725 5.75L29.875 5.75L29.875 7.25ZM37.575 7.25L41.425 7.25L41.425 5.75L37.575 5.75L37.575 7.25ZM45.275 7.25L49.125 7.25L49.125 5.75L45.275 5.75L45.275 7.25ZM52.975 7.25L56.825 7.25L56.825 5.75L52.975 5.75L52.975 7.25ZM60.675 7.25001L64.525 7.25001L64.525 5.75001L60.675 5.75001L60.675 7.25001ZM68.375 7.25001L72.225 7.25001L72.225 5.75001L68.375 5.75001L68.375 7.25001ZM76.075 7.25001L78 7.25001L78 5.75001L76.075 5.75001L76.075 7.25001Z" fill="#A3A3A3"/>
</svg>
