<svg width="128" height="29" viewBox="0 0 128 29" fill="none" xmlns="http://www.w3.org/2000/svg">
<path d="M33.3636 20.4005V9.33545H38.5387C40.9494 9.33545 42.2525 10.964 42.2525 12.8997C42.2525 14.8261 40.9215 16.4547 38.5387 16.4547H35.7185V20.4005H33.3636ZM39.8604 12.8997C39.8604 11.9691 39.1437 11.4107 38.2223 11.4107H35.7371V14.3794H38.213C39.1437 14.3794 39.8604 13.8117 39.8604 12.8997Z" fill="#2F2F2F"/>
<path d="M48.1815 20.4005C48.1163 20.1865 48.0698 19.9445 48.0512 19.6746C47.7999 19.9631 47.4555 20.1958 47.0366 20.3633C46.6178 20.5308 46.1338 20.6238 45.5753 20.6238C44.6353 20.6238 43.9465 20.4191 43.509 20.0003C43.0716 19.5816 42.8575 19.0418 42.8575 18.381C42.8575 17.7948 42.9506 17.3294 43.1367 16.9758C43.3229 16.6315 43.5835 16.3523 43.9186 16.1569C44.2536 15.9614 44.6446 15.8125 45.1006 15.7195C45.5567 15.6264 46.0593 15.5427 46.5992 15.4589C47.139 15.3844 47.502 15.2821 47.6975 15.1518C47.8837 15.0215 47.9767 14.8168 47.9767 14.5283C47.9767 14.2584 47.8557 14.0537 47.6044 13.9048C47.3531 13.7559 47.018 13.6814 46.5992 13.6814C46.1059 13.6814 45.7429 13.7931 45.5288 14.0164C45.3147 14.2398 45.1751 14.5283 45.1193 14.8912H43.1088C43.1181 14.4724 43.1926 14.0816 43.3136 13.7279C43.4439 13.3743 43.6486 13.0672 43.9279 12.8159C44.2071 12.5647 44.5794 12.3692 45.0262 12.2296C45.4823 12.09 46.0314 12.0249 46.683 12.0249C47.3252 12.0249 47.865 12.0994 48.3118 12.2389C48.7586 12.3785 49.1123 12.5926 49.3915 12.8625C49.6614 13.1323 49.8569 13.4674 49.9779 13.8768C50.0989 14.277 50.164 14.733 50.164 15.2449V20.4005H48.1815ZM48.0326 16.3988C47.9209 16.5105 47.7626 16.5943 47.5486 16.6687C47.3345 16.7338 47.0366 16.8083 46.6364 16.8828C46.0128 17.0037 45.594 17.1619 45.3613 17.3481C45.1286 17.5342 45.0169 17.8041 45.0169 18.1577C45.0169 18.7626 45.3613 19.0697 46.0593 19.0697C46.3386 19.0697 46.5899 19.0232 46.8319 18.9301C47.0739 18.8371 47.2787 18.7068 47.4462 18.5486C47.6137 18.3904 47.7533 18.2042 47.865 17.9809C47.9674 17.7668 48.0233 17.5342 48.0233 17.2922L48.0326 16.3988Z" fill="#2F2F2F"/>
<path d="M51.5695 22.4572L52.5189 20.9496C53.096 21.6476 54.0826 21.9268 54.9296 21.9268C56.2885 21.9268 57.089 20.9961 57.089 19.8701V19.0418C56.5398 19.6374 55.5811 20.2516 54.2688 20.2516C52.5096 20.2516 51.6812 19.2931 51.6812 17.7297V12.3879H53.7848V16.9014C53.7848 18.0088 54.3618 18.3811 55.2647 18.3811C56.0745 18.3811 56.726 17.9344 57.089 17.4691V12.3879H59.1925V19.8701C59.1925 22.2804 57.4799 23.6484 54.9296 23.6484C53.58 23.6484 52.5003 23.2669 51.5695 22.4572ZM65.9406 20.4005V18.1112H60.6445V16.25L65.0378 9.33545H68.2862V16.0359H69.7103V18.1112H68.2862V20.4005H65.9406ZM65.9406 11.42L62.9529 16.0359H65.9406V11.42ZM80.8609 20.4005V12.4158L77.7428 20.4005H76.7097L73.5916 12.4158V20.4005H71.2367V9.33545H74.541L77.2309 16.25L79.9208 9.33545H83.2437V20.4005H80.8609ZM84.8632 16.3803C84.8632 14.0537 86.5852 12.1832 89.0145 12.1832C91.4252 12.1832 93.0261 13.9793 93.0261 16.5757V17.0689H87.0692C87.2181 18.0461 88.0186 18.865 89.3775 18.865C90.057 18.865 90.9877 18.5858 91.4997 18.0833L92.449 19.4792C91.6486 20.2051 90.392 20.5867 89.1448 20.5867C86.7062 20.596 84.8632 18.9581 84.8632 16.3803ZM89.0145 13.9141C87.7021 13.9141 87.1436 14.8261 87.0599 15.6265H91.0063C90.9319 14.854 90.4013 13.9141 89.0145 13.9141ZM106.513 20.4005L105.815 18.53H101.068L100.37 20.4005H97.6986L101.962 9.33545H104.912L109.175 20.4005H106.513ZM103.451 11.6899L101.729 16.4547H105.182L103.451 11.6899ZM112.274 19.3676V23.453H110.171V12.3879H112.274V13.4023C112.889 12.6205 113.764 12.1925 114.75 12.1925C116.807 12.1925 118.306 13.7187 118.306 16.3896C118.306 19.0604 116.817 20.6053 114.75 20.6053C113.801 20.596 112.935 20.2051 112.274 19.3676ZM116.128 16.3803C116.128 15.0029 115.299 14.0537 114.089 14.0537C113.41 14.0537 112.647 14.4353 112.284 14.9657V17.7855C112.628 18.2973 113.41 18.7161 114.089 18.7161C115.29 18.7254 116.128 17.7762 116.128 16.3803ZM121.945 19.3676V23.453H119.842V12.3879H121.945V13.4023C122.56 12.6205 123.434 12.1925 124.421 12.1925C126.478 12.1925 127.977 13.7187 127.977 16.3896C127.977 19.0604 126.487 20.6053 124.421 20.6053C123.472 20.596 122.615 20.2051 121.945 19.3676ZM125.799 16.3803C125.799 15.0029 124.97 14.0537 123.76 14.0537C123.081 14.0537 122.318 14.4353 121.955 14.9657V17.7855C122.299 18.2973 123.081 18.7161 123.76 18.7161C124.97 18.7254 125.799 17.7762 125.799 16.3803Z" fill="#2F2F2F"/>
<g opacity="0.78">
<path d="M19.914 28.1714H7.37648C3.31831 28.1714 0.0233765 24.877 0.0233765 20.8195V8.29332C0.0233765 4.23581 3.31831 0.941406 7.37648 0.941406H19.914C23.9722 0.941406 27.2671 4.23581 27.2671 8.29332V20.8288C27.2671 24.8863 23.9722 28.1714 19.914 28.1714Z" fill="#7AC52D"/>
<path opacity="0.78" d="M3.9978 20.8011V13.3654C3.9978 12.9745 4.24911 12.6302 4.61211 12.5092L7.84189 11.4204V15.3756C7.84189 15.8688 8.14905 16.3062 8.60513 16.483C9.71274 16.9018 11.6767 17.6463 12.2072 17.8231C12.8029 18.0185 12.7284 18.6979 12.6633 18.9678C12.6261 18.9864 12.5981 19.005 12.5609 19.0236L5.20781 21.6572C4.74242 21.8248 4.22119 21.5828 4.05365 21.1175C4.01642 21.0151 3.9978 20.9128 3.9978 20.8011Z" fill="white"/>
<path opacity="0.53" d="M7.84186 11.4208V8.58198C7.84186 7.93044 8.3724 7.3999 9.02394 7.3999C9.16355 7.3999 9.29386 7.42782 9.42417 7.47436L12.6819 8.64714L12.7377 8.75883C12.9146 9.24283 12.6726 9.77337 12.1886 9.95022C12.1793 9.95022 12.1699 9.95953 12.1513 9.95953L7.84186 11.4208Z" fill="white"/>
<path d="M12.6819 8.64697L12.7377 8.75864C12.9146 9.24257 12.6726 9.77303 12.1886 9.94984C12.1793 9.94984 12.1699 9.95915 12.1513 9.95915L7.84186 11.4202V15.3754C7.84186 15.8686 8.14901 16.306 8.60509 16.4828C9.71271 16.9016 11.6766 17.6461 12.2072 17.8229C12.8029 18.0183 12.7284 18.6977 12.6633 18.9676C13.1473 18.6884 13.4544 18.1952 13.4916 17.6368V9.894C13.4916 9.54037 13.352 9.20534 13.1193 8.94477C12.9983 8.81448 12.8494 8.70281 12.6819 8.64697Z" fill="white"/>
<path opacity="0.78" d="M23.2927 8.31202V15.7477C23.2927 16.1386 23.0507 16.4829 22.6784 16.6039L19.4486 17.6927V13.7375C19.4486 13.2443 19.1414 12.8069 18.6854 12.6301C17.5871 12.2113 15.6138 11.4668 15.0833 11.29C14.4876 11.0946 14.562 10.4152 14.6272 10.1454C14.6644 10.1267 14.6924 10.1081 14.7296 10.0895L22.0827 7.45585C22.5574 7.28834 23.0693 7.5303 23.2368 8.00492C23.2741 8.09798 23.2927 8.20966 23.2927 8.31202Z" fill="white"/>
<path d="M13.7895 12.5371V19.0049C13.7802 17.8696 13.7895 14.3239 13.7895 12.5371Z" fill="white"/>
<path opacity="0.53" d="M19.4486 17.6924V20.5312C19.4486 21.1828 18.9181 21.7133 18.2665 21.7133C18.1269 21.7133 17.9966 21.6854 17.8663 21.6389L14.6179 20.4661L14.5621 20.3544C14.3852 19.8704 14.6272 19.3399 15.1112 19.163C15.1205 19.163 15.1298 19.1537 15.1484 19.1537L19.4486 17.6924Z" fill="white"/>
<path d="M14.6179 20.4656L14.562 20.3539C14.3852 19.87 14.6272 19.3396 15.1112 19.1627C15.1205 19.1627 15.1298 19.1534 15.1484 19.1534L19.4579 17.6924V13.7372C19.4579 13.244 19.1507 12.8066 18.6947 12.6298C17.5963 12.211 15.6231 11.4665 15.0926 11.2897C14.4969 11.0943 14.5713 10.4149 14.6365 10.145C14.1525 10.4242 13.8453 10.9267 13.8081 11.4758V19.2093C13.8081 19.5629 13.9384 19.8979 14.1804 20.1585C14.2921 20.2981 14.4503 20.4005 14.6179 20.4656Z" fill="white"/>
</g>
</svg>
