<svg width="16" height="16" viewBox="0 0 16 16" fill="none" xmlns="http://www.w3.org/2000/svg">
<path d="M4.66666 14H3.59999C3.17564 14 2.76868 13.8314 2.46862 13.5314C2.16856 13.2313 1.99999 12.8243 1.99999 12.4V11.3333M11.3333 14H12.4C12.8243 14 13.2313 13.8314 13.5314 13.5314C13.8314 13.2313 14 12.8243 14 12.4V11.3333M14 4.66667V3.6C14 3.17565 13.8314 2.76869 13.5314 2.46863C13.2313 2.16857 12.8243 2 12.4 2H11.3333M4.66666 2H3.59999C3.38987 2 3.18182 2.04139 2.9877 2.12179C2.79358 2.2022 2.61719 2.32006 2.46862 2.46863C2.32005 2.6172 2.20219 2.79359 2.12178 2.98771C2.04138 3.18183 1.99999 3.38989 1.99999 3.6V4.66667M0.666656 8H15.3333" stroke="#242323" stroke-width="1.2" stroke-miterlimit="10" stroke-linecap="round" stroke-linejoin="round"/>
</svg>
