<svg width="10" height="11" viewBox="0 0 10 11" fill="none" xmlns="http://www.w3.org/2000/svg">
<path d="M7.08331 9.02572H2.91665C1.39581 9.02572 0.520813 8.15072 0.520813 6.62988V3.71322C0.520813 2.19238 1.39581 1.31738 2.91665 1.31738H7.08331C8.60415 1.31738 9.47915 2.19238 9.47915 3.71322V6.62988C9.47915 8.15072 8.60415 9.02572 7.08331 9.02572ZM2.91665 1.94238C1.72498 1.94238 1.14581 2.52155 1.14581 3.71322V6.62988C1.14581 7.82155 1.72498 8.40072 2.91665 8.40072H7.08331C8.27498 8.40072 8.85415 7.82155 8.85415 6.62988V3.71322C8.85415 2.52155 8.27498 1.94238 7.08331 1.94238H2.91665Z" fill="#474646"/>
<path d="M4.99993 5.53387C4.64993 5.53387 4.29576 5.42554 4.02493 5.20471L2.72076 4.16304C2.58743 4.05471 2.56243 3.85887 2.67076 3.72554C2.7791 3.59221 2.97493 3.56721 3.10826 3.67554L4.41243 4.71721C4.72909 4.97138 5.26659 4.97138 5.58326 4.71721L6.88743 3.67554C7.02076 3.56721 7.22076 3.58804 7.32493 3.72554C7.43326 3.85887 7.41243 4.05887 7.27493 4.16304L5.97076 5.20471C5.7041 5.42554 5.34993 5.53387 4.99993 5.53387Z" fill="#474646"/>
</svg>
