<svg width="13" height="12" viewBox="0 0 13 12" fill="none" xmlns="http://www.w3.org/2000/svg">
<g clip-path="url(#clip0_8072_796)">
<path d="M4.95316 4.11797L6.25217 1.50197C6.28998 1.42626 6.34813 1.36259 6.42011 1.31808C6.49209 1.27357 6.57504 1.25 6.65967 1.25C6.74429 1.25 6.82724 1.27357 6.89922 1.31808C6.9712 1.36259 7.02935 1.42626 7.06716 1.50197L8.36617 4.11797L11.2702 4.53997C11.3539 4.55159 11.4327 4.58652 11.4976 4.64078C11.5625 4.69504 11.6108 4.76644 11.637 4.84683C11.6632 4.92723 11.6663 5.01338 11.6459 5.09545C11.6255 5.17752 11.5825 5.2522 11.5217 5.31097L9.42066 7.34597L9.91667 10.221C9.98017 10.59 9.59017 10.871 9.25667 10.697L6.65967 9.33897L4.06216 10.697C3.72916 10.8715 3.33916 10.59 3.40266 10.2205L3.89866 7.34547L1.79766 5.31047C1.73716 5.25166 1.69436 5.17705 1.67415 5.09513C1.65393 5.01321 1.6571 4.92725 1.6833 4.84704C1.7095 4.76683 1.75767 4.69558 1.82235 4.64139C1.88703 4.58719 1.96561 4.55223 2.04916 4.54047L4.95316 4.11797Z" fill="#FED101" stroke="#FED101" stroke-width="1.5" stroke-linecap="round" stroke-linejoin="round"/>
</g>
<defs>
<clipPath id="clip0_8072_796">
<rect width="12" height="12" fill="white" transform="translate(0.659668)"/>
</clipPath>
</defs>
</svg>
