<svg width="32" height="33" viewBox="0 0 32 33" fill="none" xmlns="http://www.w3.org/2000/svg">
<rect x="0.25" y="0.421387" width="31.5" height="31.5" rx="15.75" fill="#242323"/>
<rect x="0.25" y="0.421387" width="31.5" height="31.5" rx="15.75" stroke="#EBEBEB" stroke-width="0.5"/>
<path d="M17.5234 9.94059C18.2057 9.93018 18.8828 9.93538 19.5599 9.93018C19.6016 10.7271 19.888 11.5396 20.4714 12.1021C21.0547 12.6802 21.8776 12.9458 22.6797 13.0343V15.1333C21.9297 15.1073 21.1745 14.951 20.4922 14.6281C20.1953 14.4927 19.9193 14.3208 19.6484 14.1437C19.6432 15.6646 19.6537 17.1854 19.638 18.701C19.5964 19.4302 19.3568 20.1541 18.9349 20.7531C18.2526 21.7531 17.0703 22.4041 15.8568 22.425C15.112 22.4666 14.3672 22.2635 13.7318 21.8885C12.6797 21.2687 11.9401 20.1333 11.8307 18.9146C11.8203 18.6541 11.8151 18.3937 11.8255 18.1385C11.9193 17.1489 12.4089 16.201 13.1693 15.5552C14.0339 14.8052 15.2422 14.4458 16.3724 14.6593C16.3828 15.4302 16.3516 16.201 16.3516 16.9718C15.8359 16.8052 15.2318 16.8521 14.7787 17.1646C14.4505 17.3781 14.2005 17.7062 14.0703 18.076C13.9609 18.3416 13.9922 18.6333 13.9974 18.9146C14.1224 19.7687 14.9453 20.4875 15.8203 20.4093C16.4037 20.4041 16.9609 20.0656 17.263 19.5708C17.362 19.3989 17.4714 19.2218 17.4766 19.0187C17.5287 18.0864 17.5078 17.1593 17.513 16.2271C17.5182 14.1281 17.5078 12.0343 17.5234 9.94059Z" fill="#FDFDFD"/>
</svg>
