<svg width="64" height="64" viewBox="0 0 64 64" fill="none" xmlns="http://www.w3.org/2000/svg">
<g id="Frame">
<path id="Vector" d="M56.1097 38.7721L34.2217 56.2105L22.0312 62.3055L30.6987 55.3999L43.9193 44.8673C44.669 44.2882 44.8153 43.2764 44.352 41.838C43.8827 40.3995 43.072 39.345 41.92 38.6806L31.613 32.7256L43.8034 26.6303L54.1105 32.5854C55.2625 33.2498 56.0732 34.3042 56.5425 35.7427C57.0057 37.1812 56.8594 38.193 56.1097 38.7721Z" stroke="#BBA944" stroke-linecap="round" stroke-linejoin="round"/>
<path id="Vector_2" d="M34.2217 56.2106C34.0328 56.3569 33.8316 56.4605 33.6122 56.5153L34.2217 56.2106Z" stroke="#BBA944" stroke-linecap="round" stroke-linejoin="round"/>
<path id="Vector_3" d="M43.9192 44.8673L30.6986 55.3999L22.0312 62.3055C21.5436 62.6895 20.9463 62.7748 20.2392 62.5676C19.5261 62.3604 18.8434 61.891 18.1729 61.1474C17.5086 60.4101 16.9905 59.5629 16.6126 58.6059C16.2347 57.649 16.0883 56.7652 16.1797 55.9545L18.307 40.3141L10.0602 35.5538C8.9935 34.9381 8.20722 33.9324 7.70131 32.5488C7.18931 31.1591 7.24414 30.1351 7.86586 29.4768L27.7546 8.13738C27.8643 8.02157 27.9801 7.93014 28.1081 7.8509L28.1509 7.82652L28.3336 7.74119C28.6628 7.5949 29.0469 7.57052 29.4857 7.64976C30.1928 7.77776 30.9241 8.21052 31.6799 8.95414C32.0091 9.27719 32.2956 9.61852 32.5455 9.98423C32.8747 10.4536 33.1429 10.9656 33.344 11.5141C33.6975 12.4833 33.8316 13.3732 33.7401 14.1899L31.6129 32.7256L41.92 38.6806C43.072 39.345 43.8827 40.3995 44.352 41.8379C44.8152 43.2764 44.6689 44.2882 43.9192 44.8673Z" fill="#F4DC57" stroke="#BBA944" stroke-linecap="round" stroke-linejoin="round"/>
<path id="Vector_4" d="M45.9306 8.09474L43.8034 26.6304L31.6129 32.7256L33.7401 14.19C33.8316 13.3732 33.6975 12.4833 33.3439 11.5142C33.1428 10.9656 32.8746 10.4536 32.5455 9.98426C32.2956 9.61854 32.0091 9.27721 31.6799 8.95416C30.9241 8.21054 30.1927 7.77778 29.4856 7.64978C29.0468 7.57054 28.6628 7.59493 28.3336 7.74121L40.3656 1.71913C40.7375 1.5119 41.1702 1.45704 41.6761 1.55456C42.3832 1.68256 43.1146 2.11532 43.8704 2.85894C44.6201 3.59647 45.1748 4.4498 45.5344 5.41894C45.8879 6.38807 46.022 7.27797 45.9306 8.09474Z" stroke="#BBA944" stroke-linecap="round" stroke-linejoin="round"/>
<path id="Vector_5" d="M40.4327 1.68253L40.3657 1.7191" stroke="#BBA944" stroke-linecap="round" stroke-linejoin="round"/>
</g>
</svg>
