<svg width="32" height="33" viewBox="0 0 32 33" fill="none" xmlns="http://www.w3.org/2000/svg">
<rect x="0.25" y="0.421387" width="31.5" height="31.5" rx="15.75" fill="#242323"/>
<rect x="0.25" y="0.421387" width="31.5" height="31.5" rx="15.75" stroke="#EBEBEB" stroke-width="0.5"/>
<g clip-path="url(#clip0_3940_11464)">
<path d="M16.7898 11.9253H16.8594C17.5016 11.9276 20.7555 11.9511 21.6328 12.187C21.898 12.259 22.1397 12.3994 22.3337 12.594C22.5277 12.7887 22.6672 13.0309 22.7383 13.2964C22.8172 13.5933 22.8727 13.9862 22.9102 14.3917L22.918 14.4729L22.9352 14.6761L22.9414 14.7573C22.9922 15.4714 22.9984 16.1401 22.9992 16.2862V16.3448C22.9984 16.4964 22.9914 17.2104 22.9352 17.9542L22.9289 18.0362L22.9219 18.1175C22.8828 18.5644 22.825 19.0081 22.7383 19.3347C22.6672 19.6001 22.5277 19.8423 22.3337 20.037C22.1397 20.2317 21.898 20.372 21.6328 20.444C20.7266 20.6878 17.282 20.705 16.8047 20.7058H16.6937C16.4523 20.7058 15.4539 20.7011 14.407 20.6651L14.2742 20.6604L14.2062 20.6573L14.0727 20.6519L13.9391 20.6464C13.0719 20.6081 12.2461 20.5464 11.8656 20.4433C11.6005 20.3713 11.3589 20.2311 11.1649 20.0366C10.9709 19.842 10.8313 19.6 10.7602 19.3347C10.6734 19.0089 10.6156 18.5644 10.5766 18.1175L10.5703 18.0354L10.5641 17.9542C10.5253 17.4248 10.5039 16.8943 10.5 16.3636L10.5 16.2675C10.5016 16.0995 10.5078 15.519 10.55 14.8784L10.5555 14.7979L10.5578 14.7573L10.5641 14.6761L10.5813 14.4729L10.5891 14.3917C10.6266 13.9862 10.682 13.5925 10.7609 13.2964C10.832 13.0309 10.9715 12.7887 11.1655 12.594C11.3595 12.3994 11.6012 12.259 11.8664 12.187C12.2469 12.0854 13.0727 12.0229 13.9398 11.9839L14.0727 11.9784L14.207 11.9737L14.2742 11.9714L14.4078 11.9659C15.1513 11.942 15.8952 11.9287 16.6391 11.9261L16.7898 11.9253ZM15.5 14.4331V18.1972L18.7477 16.3159L15.5 14.4331Z" fill="#FDFDFD"/>
</g>
<defs>
<clipPath id="clip0_3940_11464">
<rect width="12.5" height="12.5" fill="white" transform="translate(10.5 10.3638)"/>
</clipPath>
</defs>
</svg>
